<svg xmlns="http://www.w3.org/2000/svg" width="512" height="512" viewBox="0 0 512 512" version="1.1">
  <path d="M 228 1.067 C 198.988 4.646, 167.953 13.508, 146.126 24.448 L 137.751 28.646 119.626 19.503 C 93.059 6.104, 71.667 -0.118, 57.614 1.466 C 25.163 5.126, 20.342 36.184, 44.415 86.500 C 63.665 126.733, 94.394 168.990, 154.182 237.443 L 157.863 241.658 155.437 246.579 C 147.249 263.184, 151.936 283.729, 167.646 300.089 L 171.092 303.679 169.093 317.589 C 165.148 345.029, 163.750 379.148, 166.175 388.779 C 167.008 392.088, 168.679 394.769, 171.925 398 C 179.420 405.462, 189.402 407.095, 198.824 402.400 C 204.671 399.487, 207.813 395.488, 212.892 384.500 C 217.060 375.479, 229.892 354, 231.113 354 C 231.628 354, 236.324 357.213, 241.548 361.139 C 248.217 366.152, 250.902 368.758, 250.561 369.889 C 249.507 373.392, 248.001 388.857, 248.022 395.974 C 248.058 408.479, 252.959 415.638, 263.028 417.894 C 273.948 420.342, 281.280 415.427, 287.114 401.750 L 290.420 394 294.460 393.990 C 300.099 393.977, 307.755 390.114, 312.594 384.843 C 316.598 380.481, 318.929 375.480, 320.646 367.564 L 321.500 363.628 327.927 361.064 C 340.535 356.034, 346.521 347.109, 344.005 337.096 C 341.350 326.533, 334.626 322, 321.612 322 C 313.906 322, 299.890 323.403, 295.889 324.575 C 294.764 324.904, 292.126 322.182, 287.139 315.548 C 283.213 310.324, 280 305.628, 280 305.113 C 280 303.892, 301.479 291.060, 310.500 286.892 C 321.488 281.813, 325.487 278.671, 328.400 272.824 C 334.772 260.038, 328.598 244.334, 315.692 240.501 C 306.242 237.695, 271.788 238.891, 243.086 243.022 L 229.672 244.953 225.456 241.066 C 219.250 235.345, 211.216 230.284, 204.461 227.840 C 196.382 224.916, 183.613 224.857, 176.349 227.710 L 171.198 229.733 155.781 212.116 C 126.219 178.339, 104.451 150.268, 84.845 120.645 L 73.028 102.789 80.157 94.895 C 84.077 90.553, 87.634 87, 88.061 87 C 88.488 87, 89.798 88.555, 90.973 90.456 C 94.232 95.730, 102.818 102.986, 109.500 106.114 C 118.252 110.211, 126.093 111.984, 138.502 112.671 C 153.013 113.474, 166.562 111.997, 206 105.313 L 238.500 99.804 256 99.276 C 269.809 98.858, 275.140 99.087, 281.277 100.357 C 294.982 103.194, 306.543 110.289, 309.683 117.790 C 310.440 119.599, 311.730 125.854, 312.549 131.689 C 314.291 144.099, 316.406 149.479, 321.098 153.435 C 326.210 157.745, 330.151 159, 338.574 159 C 348.161 159, 354.127 157.452, 376 149.285 C 401.849 139.635, 409.467 139.592, 412.022 149.082 C 413.348 154.006, 412.853 158.687, 408.433 183 C 402.762 214.197, 401.972 225.342, 404.445 239.215 C 407.995 259.119, 420.193 271.888, 441 277.476 C 448.782 279.566, 474.893 280.608, 485.750 279.261 L 493 278.362 493 281.055 C 493 284.429, 489.359 305.908, 487.722 312.188 L 486.500 316.876 480.500 312.793 C 471.747 306.838, 457.348 300.245, 447.849 297.842 C 431.315 293.661, 417.033 296.871, 405.323 307.400 C 394.426 317.197, 392.398 328.313, 397.097 352.500 C 399.082 362.718, 398.646 374.522, 395.971 383 C 394.359 388.109, 393.588 392.998, 393.552 398.334 L 393.500 406.169 396.306 408.584 C 399.955 411.726, 404.056 411.665, 407.923 408.411 L 411 405.822 411 399.963 C 411 396.349, 412.024 390.921, 413.673 385.802 C 417.167 374.949, 417.271 364.333, 414.070 345.310 L 411.682 331.120 413.430 326.543 C 416.286 319.066, 424.698 314, 434.258 314 C 445.136 314, 459.234 319.686, 473.731 329.921 L 480.962 335.026 478.882 340.763 C 474.796 352.034, 463.106 374.700, 455.293 386.500 C 443.640 404.098, 432.175 417.550, 416.751 431.723 L 408.891 438.945 400.695 433.840 C 388.848 426.459, 375.467 417.101, 359.541 405.057 C 351.864 399.251, 344.664 393.953, 343.541 393.285 C 336.432 389.055, 327.886 396.483, 331.057 404.137 C 332.420 407.428, 355.037 424.777, 378.359 440.421 L 393.622 450.660 385.061 456.283 C 356.175 475.258, 320.627 488.163, 285.108 492.569 C 269.907 494.455, 240.247 494.407, 225.301 492.472 C 147.919 482.456, 79.326 433.980, 43.564 364.034 C 18.392 314.799, 11.049 257.447, 23.165 204.712 L 25.185 195.924 27.342 196.566 C 28.529 196.920, 32.425 198.801, 36 200.747 C 55.829 211.543, 67.738 224.212, 71.448 238.460 C 73.200 245.188, 73.469 259.520, 72.011 268.500 C 67.315 297.429, 69.360 309.515, 80.753 320.172 C 84.343 323.531, 87.328 325.276, 91.603 326.517 C 101.135 329.285, 102.025 329.818, 103.682 333.752 L 105.260 337.500 102.996 352.884 C 100.293 371.255, 100.576 386.654, 103.802 396.767 C 106.924 406.556, 118.947 427.908, 122.323 429.661 C 128.450 432.843, 135.662 427.792, 134.690 421 C 134.414 419.075, 131.667 413, 128.586 407.500 C 118.362 389.254, 117.026 379.481, 121.052 352.389 C 123.231 337.728, 123.045 333.367, 119.936 326.203 C 116.094 317.351, 112.134 314.061, 101.500 310.889 C 87.453 306.698, 85.580 301.492, 88.946 276 C 93.767 239.490, 89.946 223.996, 71.529 205.367 C 61.944 195.672, 53.798 189.895, 40 183.010 C 35.325 180.676, 31.341 178.624, 31.147 178.448 C 30.247 177.631, 35.736 163.944, 42.522 150.087 C 46.635 141.689, 50 133.993, 50 132.985 C 50 131.978, 48.835 129.769, 47.411 128.077 C 44.157 124.209, 38.654 123.810, 35.038 127.180 C 31.771 130.223, 19.033 157.095, 14.028 171.500 C 9.125 185.612, 5.753 198.922, 2.881 215.500 C -0.133 232.898, -0.848 267.764, 1.436 286.036 C 12.370 373.529, 65.019 447.660, 143.500 486.065 C 167.283 497.703, 188.581 504.547, 215.069 509.062 C 230.883 511.758, 264.734 512.790, 281.154 511.076 C 323.295 506.678, 363.274 492.376, 397.710 469.379 C 404.611 464.771, 410.416 461, 410.611 461 C 410.806 461, 416.967 463.907, 424.303 467.459 C 462.154 485.788, 489.627 487.893, 502.910 473.482 C 516.359 458.891, 510.711 424.901, 488.058 384.105 L 483.076 375.132 488.463 363.799 C 494.878 350.304, 501.733 330.678, 505.334 315.500 C 508.175 303.527, 511 286.079, 511 280.507 C 511 278.578, 511.450 277, 512 277 C 512.636 277, 513 269.147, 513 255.441 C 513 241.323, 512.655 234.095, 512 234.500 C 511.400 234.871, 511 233.594, 511 231.309 C 510.999 225.166, 507.187 203.398, 504.028 191.500 C 494.744 156.539, 478.379 123.866, 456.193 96 C 446.509 83.837, 428.163 65.491, 416 55.807 C 381.259 28.148, 339.197 9.672, 294.500 2.437 C 282.702 0.528, 239.575 -0.361, 228 1.067 M 224 19.604 C 218.225 20.372, 206.975 22.619, 199 24.597 C 163.236 33.465, 135.279 47.516, 103.242 72.726 L 101.684 73.951 105.249 79.319 C 109.361 85.513, 116.069 90.337, 123.980 92.789 C 131.341 95.071, 158.259 95.017, 172.500 92.692 C 207.581 86.966, 228.368 84.039, 241.500 82.977 C 277.294 80.083, 304.866 85.771, 317.816 98.721 C 325.454 106.358, 328.795 115.051, 330.556 131.861 C 331.016 136.257, 331.845 138.845, 333.238 140.238 L 335.254 142.254 340.377 141.718 C 343.195 141.423, 353.621 138.252, 363.546 134.671 C 386.710 126.314, 392.716 124.774, 402.521 124.678 C 411.980 124.585, 417.986 126.942, 423.081 132.745 C 428.657 139.096, 429.470 142.127, 429.452 156.500 L 429.435 169.500 425.502 190 L 421.569 210.500 421.535 224.500 L 421.500 238.500 423.804 243.500 C 426.722 249.835, 430.244 253.545, 436.241 256.606 C 445.244 261.199, 452.720 262.255, 472.500 261.728 C 482.400 261.464, 491.288 260.919, 492.250 260.517 L 494 259.786 494 249.113 C 494 222.817, 486.831 189.533, 475.394 162.727 C 442.512 85.656, 369.293 30.084, 286.699 19.511 C 271.949 17.622, 238.509 17.672, 224 19.604 M 53.299 20.960 C 48.640 23.800, 46.857 27.981, 46.883 36.006 C 46.917 46.840, 51.132 60.363, 59.929 77.859 L 63.872 85.702 76.198 73.601 C 88.694 61.332, 99.463 52.391, 112.053 43.829 L 119.001 39.105 110.750 34.609 C 101.138 29.371, 85.064 22.765, 76.540 20.549 C 67.960 18.319, 57.321 18.507, 53.299 20.960 M 0.426 256.500 C 0.427 268.600, 0.571 273.413, 0.747 267.195 C 0.923 260.977, 0.922 251.077, 0.746 245.195 C 0.569 239.313, 0.425 244.400, 0.426 256.500 M 182.500 244.443 C 180.300 245.254, 176.843 247.686, 174.819 249.846 C 165.628 259.654, 168.011 274.627, 180.828 287.603 C 184.031 290.846, 187.453 294.732, 188.432 296.237 L 190.213 298.973 188.626 307.737 C 185.536 324.808, 183.874 341.752, 183.297 362.048 C 182.649 384.873, 183.043 387, 187.913 387 C 191.531 387, 191.636 386.862, 199.243 371.980 C 206.095 358.574, 216.573 341.829, 221.913 335.750 C 227.121 329.821, 229.918 330.356, 242.825 339.750 C 260.032 352.273, 268.021 358.925, 269.024 361.564 C 269.670 363.262, 269.479 366.303, 268.415 371.269 C 266.262 381.317, 265.260 401.413, 266.941 400.853 C 267.629 400.624, 270.339 395.500, 272.963 389.468 L 277.733 378.500 280.942 376.614 L 284.150 374.728 288.129 375.921 L 292.109 377.113 295.776 375.306 C 297.794 374.313, 300.294 372.023, 301.333 370.218 L 303.221 366.936 302.073 362.375 L 300.924 357.814 302.712 354.761 C 304.111 352.372, 306.886 350.667, 315.479 346.917 C 321.518 344.281, 326.618 341.647, 326.812 341.063 C 327.384 339.347, 312.726 339.851, 300.502 341.967 L 289.505 343.872 287.002 342.678 C 284.750 341.604, 268.540 321.297, 260.980 310.079 C 256.979 304.142, 257.054 300.293, 261.250 296.297 C 266.357 291.433, 283.708 280.523, 297.687 273.385 C 312.802 265.667, 313 265.522, 313 262.078 C 313 257.385, 311.710 256.999, 296.050 257.010 C 278.272 257.023, 261.982 258.324, 243.500 261.209 C 223.345 264.354, 224.518 264.565, 215.375 256.141 C 211.066 252.171, 205.222 247.788, 202.387 246.401 C 195.950 243.252, 187.885 242.458, 182.500 244.443 M 468.466 399.333 C 461.717 409.801, 449.138 424.987, 437.325 436.927 C 431.108 443.212, 426.157 448.491, 426.325 448.658 C 426.493 448.826, 431.775 451.400, 438.065 454.378 C 455.095 462.442, 464.715 465.302, 475.175 465.410 L 483.850 465.500 486.675 463.429 C 488.229 462.290, 490.319 459.815, 491.321 457.929 L 493.142 454.500 492.630 446.500 C 492.313 441.528, 490.978 435.017, 489.105 429.299 C 486.161 420.312, 478.270 402.651, 474.380 396.341 L 472.432 393.181 468.466 399.333" stroke="none" fill="#06a9f1" fill-rule="evenodd"/>
</svg>
